<?xml version="1.0" standalone="no"?>
<!DOCTYPE svg PUBLIC "-//W3C//DTD SVG 20010904//EN"
 "http://www.w3.org/TR/2001/REC-SVG-20010904/DTD/svg10.dtd">
<svg version="1.0" xmlns="http://www.w3.org/2000/svg"
 width="871.000000pt" height="580.000000pt" viewBox="0 0 871.000000 580.000000"
 preserveAspectRatio="xMidYMid meet">

<g transform="translate(0.000000,580.000000) scale(0.100000,-0.100000)"
fill="#000000" stroke="none">
<path d="M6545 4212 c-202 -75 -322 -277 -287 -482 60 -350 491 -487 737 -235
207 212 145 567 -122 697 -61 29 -78 33 -173 35 -83 3 -115 0 -155 -15z"/>
<path d="M1583 4191 c2 -10 184 -597 403 -1305 l399 -1286 403 0 c221 0 402 3
402 6 0 13 502 1839 509 1852 4 7 120 -407 258 -920 l250 -933 401 -3 401 -2
42 132 c23 73 207 660 409 1303 l367 1170 -370 3 c-204 1 -374 -1 -378 -5 -4
-5 -112 -420 -239 -923 -128 -503 -236 -918 -240 -923 -5 -6 -191 657 -511
1816 l-10 37 -374 0 c-206 0 -376 -4 -379 -8 -3 -5 -120 -424 -261 -932 -140
-508 -257 -925 -258 -927 -2 -1 -108 408 -235 910 -128 501 -235 922 -238 935
l-6 22 -375 0 c-363 0 -375 -1 -370 -19z"/>
<path d="M6555 2422 c-209 -72 -333 -273 -297 -482 33 -191 174 -330 367 -362
88 -15 178 2 267 49 208 109 288 368 178 582 -28 56 -110 143 -164 175 -96 56
-250 73 -351 38z"/>
</g>
</svg>
